<?xml version="1.0" encoding="UTF-8"?>
<svg version="1.1" xmlns="http://www.w3.org/2000/svg" width="654" height="519">
<path d="M0 0 C215.82 0 431.64 0 654 0 C654 171.27 654 342.54 654 519 C438.18 519 222.36 519 0 519 C0 347.73 0 176.46 0 0 Z " fill="#000000" transform="translate(0,0)"/>
<path d="M0 0 C9.57 0 19.14 0 29 0 C29.0309375 6.6515625 29.0309375 6.6515625 29.0625 13.4375 C29.071604 14.83798584 29.08070801 16.23847168 29.09008789 17.68139648 C29.09383423 19.32217163 29.09383423 19.32217163 29.09765625 20.99609375 C29.10551147 22.68496704 29.10551147 22.68496704 29.11352539 24.40795898 C29 27 29 27 28 28 C18.76 28 9.52 28 0 28 C0 59.02 0 90.04 0 122 C9.24 122 18.48 122 28 122 C28.02258451 154.97804657 28.04049778 187.95609017 28.05106533 220.93414268 C28.05231611 224.82336401 28.05361042 228.71258533 28.05493164 232.60180664 C28.05532511 233.76326701 28.05532511 233.76326701 28.05572652 234.94819123 C28.06008339 247.5022792 28.06797102 260.05636261 28.0771528 272.61044788 C28.08648888 285.48242367 28.09205551 298.35439707 28.09408849 311.22637612 C28.09546382 319.17552393 28.09981491 327.12465887 28.10791647 335.07380272 C28.11380403 341.15884397 28.11445908 347.24387403 28.11310768 353.32891846 C28.11338421 355.83280072 28.11539201 358.33668344 28.11920547 360.84056282 C28.12413565 364.2427616 28.1230008 367.64490397 28.12025452 371.04710388 C28.12462378 372.55436803 28.12462378 372.55436803 28.12908131 374.09208196 C28.12709026 374.99627247 28.12509921 375.90046297 28.12304783 376.83205318 C28.12342755 377.61845399 28.12380727 378.40485479 28.1241985 379.21508592 C28 381 28 381 27 382 C25.00035018 382.08758003 22.9976389 382.10696576 20.99609375 382.09765625 C19.78115234 382.09443359 18.56621094 382.09121094 17.31445312 382.08789062 C15.39536133 382.07532227 15.39536133 382.07532227 13.4375 382.0625 C12.15423828 382.05798828 10.87097656 382.05347656 9.54882812 382.04882812 C6.3658658 382.03699555 3.18292726 382.01905944 0 382 C0 389.26 0 396.52 0 404 C9.24 404 18.48 404 28 404 C28.0309375 410.8990625 28.0309375 410.8990625 28.0625 417.9375 C28.071604 419.39019287 28.08070801 420.84288574 28.09008789 422.33959961 C28.09383423 424.04128296 28.09383423 424.04128296 28.09765625 425.77734375 C28.10551147 427.52905884 28.10551147 427.52905884 28.11352539 429.31616211 C28 432 28 432 27 433 C24.92737924 433.08767112 22.85179706 433.10695873 20.77734375 433.09765625 C19.51728516 433.09443359 18.25722656 433.09121094 16.95898438 433.08789062 C15.61848891 433.07953403 14.27799412 433.07106907 12.9375 433.0625 C11.59310058 433.0574866 10.2486994 433.05292342 8.90429688 433.04882812 C5.60284567 433.03699497 2.3014174 433.01905886 -1 433 C-1 424.75 -1 416.5 -1 408 C-85.48 408 -169.96 408 -257 408 C-257 416.91 -257 425.82 -257 435 C-258.85581966 436.85581966 -261.49398306 436.12004366 -263.96286011 436.12442017 C-264.81953278 436.12082489 -265.67620544 436.11722961 -266.55883789 436.11352539 C-267.45631241 436.11367142 -268.35378693 436.11381744 -269.27845764 436.1139679 C-272.25988134 436.11326842 -275.2412434 436.10547441 -278.22265625 436.09765625 C-280.28388942 436.09579219 -282.34512304 436.09436823 -284.40635681 436.09336853 C-289.8430401 436.08954237 -295.27969686 436.07971126 -300.71636963 436.06866455 C-306.25947714 436.05845253 -311.80258892 436.05387136 -317.34570312 436.04882812 C-328.23048231 436.03808908 -339.1152348 436.02049149 -350 436 C-350 444.25 -350 452.5 -350 461 C-359.57 461 -369.14 461 -379 461 C-379 451.43 -379 441.86 -379 432 C-369.43 432 -359.86 432 -350 432 C-350 400.98 -350 369.96 -350 338 C-359.24 338 -368.48 338 -378 338 C-378 252.2 -378 166.4 -378 78 C-368.76 78 -359.52 78 -350 78 C-350 70.74 -350 63.48 -350 56 C-359.24 56 -368.48 56 -378 56 C-378 46.43 -378 36.86 -378 27 C-373.400625 26.979375 -368.80125 26.95875 -364.0625 26.9375 C-362.60980713 26.928396 -361.15711426 26.91929199 -359.66040039 26.90991211 C-358.52594482 26.90741455 -357.39148926 26.90491699 -356.22265625 26.90234375 C-354.47094116 26.89448853 -354.47094116 26.89448853 -352.68383789 26.88647461 C-350 27 -350 27 -349 28 C-349 35.92 -349 43.84 -349 52 C-264.52 52 -180.04 52 -93 52 C-93 43.09 -93 34.18 -93 25 C-85.0158432 24.86803047 -77.0316983 24.73658022 -69.04747009 24.60920715 C-65.32606003 24.54971818 -61.60466569 24.48950077 -57.88330078 24.42724609 C-38.58527715 24.10508451 -19.30149747 23.94913966 0 24 C0 16.08 0 8.16 0 0 Z " fill="#010202" transform="translate(502,20)"/>
<path d="M0 0 C9.57 0 19.14 0 29 0 C29.0309375 6.6515625 29.0309375 6.6515625 29.0625 13.4375 C29.071604 14.83798584 29.08070801 16.23847168 29.09008789 17.68139648 C29.09383423 19.32217163 29.09383423 19.32217163 29.09765625 20.99609375 C29.10551147 22.68496704 29.10551147 22.68496704 29.11352539 24.40795898 C29 27 29 27 28 28 C25.85441173 28.08775605 23.70595579 28.10695219 21.55859375 28.09765625 C20.25341797 28.09443359 18.94824219 28.09121094 17.60351562 28.08789062 C16.2148431 28.07953401 14.82617123 28.07106905 13.4375 28.0625 C12.04492344 28.05748666 10.65234519 28.05292347 9.25976562 28.04882812 C5.8398013 28.03699434 2.41992156 28.0205088 -1 28 C-0.99777939 29.18794662 -0.99555878 30.37589325 -0.99327087 31.59983826 C-0.97304108 42.76907986 -0.95802865 53.93831777 -0.94818783 65.10757351 C-0.94295859 70.85045062 -0.9358602 76.59331301 -0.92456055 82.33618164 C-0.91373313 87.87339995 -0.90772348 93.41060404 -0.90512276 98.94783211 C-0.90326824 101.06544277 -0.89964714 103.18305262 -0.89426994 105.30065727 C-0.88706144 108.25571274 -0.88600898 111.21070871 -0.88647461 114.16577148 C-0.88287933 115.05049637 -0.87928406 115.93522125 -0.87557983 116.84675598 C-0.88594784 122.88594784 -0.88594784 122.88594784 -2 124 C-10.58 124 -19.16 124 -28 124 C-28 100.57 -28 77.14 -28 53 C-48.79 53 -69.58 53 -91 53 C-91 61.58 -91 70.16 -91 79 C-92 80 -92 80 -93.77850205 80.1241985 C-94.95354661 80.12362892 -94.95354661 80.12362892 -96.15232944 80.12304783 C-97.05303655 80.12503888 -97.95374366 80.12702993 -98.88174492 80.12908131 C-99.88269674 80.12616847 -100.88364856 80.12325563 -101.91493225 80.12025452 C-102.96934318 80.12110894 -104.02375412 80.12196337 -105.1101169 80.12284368 C-108.67246782 80.12450163 -112.2347725 80.11897199 -115.79711914 80.11352539 C-118.33910623 80.11324356 -120.8810934 80.11340117 -123.42308044 80.1139679 C-128.91081909 80.11419622 -134.39854262 80.11134471 -139.88627815 80.10573006 C-147.82070802 80.09761738 -155.75513214 80.09500008 -163.68956571 80.09374207 C-176.56135761 80.09155118 -189.43314318 80.0848901 -202.30493164 80.07543945 C-214.81176726 80.06626628 -227.31860116 80.05919645 -239.82543945 80.05493164 C-240.60368724 80.05466364 -241.38193502 80.05439565 -242.18376607 80.05411953 C-248.26979745 80.05204021 -254.35582888 80.05008325 -260.44186032 80.04816496 C-290.29457935 80.03872417 -320.14728256 80.01860755 -350 80 C-350 164.48 -350 248.96 -350 336 C-341.09 336 -332.18 336 -323 336 C-322 337 -322 337 -321.87974548 339.77772522 C-321.88196609 341.01904709 -321.88418671 342.26036896 -321.88647461 343.53930664 C-321.88632858 344.22220261 -321.88618256 344.90509857 -321.8860321 345.60868835 C-321.88673124 347.87587614 -321.8945236 350.14298274 -321.90234375 352.41015625 C-321.90420793 353.97814387 -321.90563183 355.54613207 -321.90663147 357.11412048 C-321.91045666 361.24876503 -321.92028694 365.38337466 -321.93133545 369.51800537 C-321.94334418 374.47475717 -321.94795181 379.43152061 -321.95378876 384.38828278 C-321.96349871 391.92554616 -321.98265523 399.46273288 -322 407 C-301.21 407 -280.42 407 -259 407 C-259 398.42 -259 389.84 -259 381 C-173.86 381 -88.72 381 -1 381 C-1 388.92 -1 396.84 -1 405 C8.57 405 18.14 405 28 405 C28.0309375 411.6515625 28.0309375 411.6515625 28.0625 418.4375 C28.071604 419.83798584 28.08070801 421.23847168 28.09008789 422.68139648 C28.09383423 424.32217163 28.09383423 424.32217163 28.09765625 425.99609375 C28.10551147 427.68496704 28.10551147 427.68496704 28.11352539 429.40795898 C28 432 28 432 27 433 C24.92737924 433.08767112 22.85179706 433.10695873 20.77734375 433.09765625 C19.51728516 433.09443359 18.25722656 433.09121094 16.95898438 433.08789062 C15.61848891 433.07953403 14.27799412 433.07106907 12.9375 433.0625 C11.59310058 433.0574866 10.2486994 433.05292342 8.90429688 433.04882812 C5.60284567 433.03699497 2.3014174 433.01905886 -1 433 C-1 424.75 -1 416.5 -1 408 C-85.48 408 -169.96 408 -257 408 C-257 416.91 -257 425.82 -257 435 C-258.85581966 436.85581966 -261.49398306 436.12004366 -263.96286011 436.12442017 C-264.81953278 436.12082489 -265.67620544 436.11722961 -266.55883789 436.11352539 C-267.45631241 436.11367142 -268.35378693 436.11381744 -269.27845764 436.1139679 C-272.25988134 436.11326842 -275.2412434 436.10547441 -278.22265625 436.09765625 C-280.28388942 436.09579219 -282.34512304 436.09436823 -284.40635681 436.09336853 C-289.8430401 436.08954237 -295.27969686 436.07971126 -300.71636963 436.06866455 C-306.25947714 436.05845253 -311.80258892 436.05387136 -317.34570312 436.04882812 C-328.23048231 436.03808908 -339.1152348 436.02049149 -350 436 C-350 444.25 -350 452.5 -350 461 C-359.57 461 -369.14 461 -379 461 C-379 451.43 -379 441.86 -379 432 C-369.43 432 -359.86 432 -350 432 C-350 400.98 -350 369.96 -350 338 C-359.24 338 -368.48 338 -378 338 C-378 252.2 -378 166.4 -378 78 C-368.76 78 -359.52 78 -350 78 C-350 70.74 -350 63.48 -350 56 C-359.24 56 -368.48 56 -378 56 C-378 46.43 -378 36.86 -378 27 C-373.400625 26.979375 -368.80125 26.95875 -364.0625 26.9375 C-362.60980713 26.928396 -361.15711426 26.91929199 -359.66040039 26.90991211 C-358.52594482 26.90741455 -357.39148926 26.90491699 -356.22265625 26.90234375 C-354.47094116 26.89448853 -354.47094116 26.89448853 -352.68383789 26.88647461 C-350 27 -350 27 -349 28 C-349 35.92 -349 43.84 -349 52 C-264.52 52 -180.04 52 -93 52 C-93 43.09 -93 34.18 -93 25 C-85.0158432 24.86803047 -77.0316983 24.73658022 -69.04747009 24.60920715 C-65.32606003 24.54971818 -61.60466569 24.48950077 -57.88330078 24.42724609 C-38.58527715 24.10508451 -19.30149747 23.94913966 0 24 C0 16.08 0 8.16 0 0 Z " fill="#3DC6A5" transform="translate(502,20)"/>
<path d="M0 0 C53.79 0 107.58 0 163 0 C163 16.5 163 33 163 50 C113.5 50 64 50 13 50 C13 99.17 13 148.34 13 199 C46 199 79 199 113 199 C113 182.5 113 166 113 149 C96.5 149 80 149 63 149 C63 132.83 63 116.66 63 100 C96 100 129 100 163 100 C163 149.17 163 198.34 163 249 C123.65080426 249.1209091 123.65080426 249.1209091 107.11523438 249.14648438 C95.71439549 249.16425985 84.31362331 249.18511501 72.9128418 249.22631836 C64.60835743 249.25631701 56.30392736 249.27559776 47.9993903 249.28226548 C43.60640593 249.28616009 39.21357684 249.29524686 34.82064247 249.31719017 C30.67644758 249.33772109 26.5324703 249.34380066 22.38822937 249.33932304 C20.8762614 249.34014088 19.3642853 249.34600688 17.85236168 249.35761642 C2.57589759 249.46905513 -11.95063464 247.5044872 -23.75 236.9375 C-35.22806396 224.46374856 -36.30189716 210.20928373 -36.25878906 194.24023438 C-36.26150262 192.54909617 -36.2650656 190.85795915 -36.26940918 189.16682434 C-36.27849205 184.59455504 -36.2750059 180.02237646 -36.26865101 175.45010567 C-36.26356973 170.65370575 -36.26828836 165.85731333 -36.27142334 161.06091309 C-36.27505679 153.00787977 -36.27028019 144.9548832 -36.26074219 136.90185547 C-36.24985884 127.6058875 -36.25338486 118.31000727 -36.264395 109.01404142 C-36.27348558 101.0171749 -36.27474449 93.02033471 -36.26951766 85.02346468 C-36.2664077 80.25408777 -36.26596179 75.48475204 -36.27259064 70.71537781 C-36.27838925 66.23046979 -36.27432132 61.74567435 -36.26280212 57.26077843 C-36.26016896 55.61974461 -36.26089753 53.97870123 -36.26532745 52.33767128 C-36.30284369 37.02219204 -34.68078217 23.46186422 -23.4375 11.9375 C-17.46078867 6.21647685 -10.29708443 2.32431129 -1.9375 1.8125 C-0.9784375 1.9053125 -0.9784375 1.9053125 0 2 C0 1.34 0 0.68 0 0 Z " fill="#F6F6F6" transform="translate(264,124)"/>
<path d="M0 0 C8.91 0 17.82 0 27 0 C27 85.14 27 170.28 27 258 C18.09 258 9.18 258 0 258 C0 172.86 0 87.72 0 0 Z " fill="#3DC8A3" transform="translate(502,143)"/>
<path d="M0 0 C8.91 0 17.82 0 27 0 C27 85.14 27 170.28 27 258 C18.09 258 9.18 258 0 258 C0 172.86 0 87.72 0 0 Z " fill="#3DC8A3" transform="translate(124,99)"/>
<path d="M0 0 C84.48 0 168.96 0 256 0 C256 8.25 256 16.5 256 25 C171.52 25 87.04 25 0 25 C0 16.75 0 8.5 0 0 Z " fill="#3DCBA5" transform="translate(244,402)"/>
<path d="M0 0 C1.16137463 0.00056958 1.16137463 0.00056958 2.34621137 0.00115067 C3.68159675 -0.00183591 3.68159675 -0.00183591 5.04395962 -0.00488281 C6.03323859 -0.00196997 7.02251757 0.00094287 8.04177469 0.00394398 C9.08393497 0.00308955 10.12609524 0.00223513 11.19983613 0.00135481 C14.72072865 -0.0003031 18.24157437 0.00522646 21.76246256 0.01067311 C24.27489337 0.01095494 26.78732427 0.01079733 29.29975504 0.0102306 C34.72365098 0.01000228 40.14753163 0.01285375 45.57142442 0.01846844 C53.41354703 0.02658116 61.25566382 0.02919842 69.09779017 0.03045643 C81.81983921 0.03264731 94.54188184 0.03930837 107.2639274 0.04875904 C119.6252552 0.05793223 131.98658126 0.06501352 144.34791178 0.06926686 C145.4900435 0.06966094 145.4900435 0.06966094 146.65524859 0.07006299 C150.47491611 0.07136799 154.29458365 0.0726317 158.1142512 0.07387489 C189.82308365 0.08424862 221.5319075 0.10214232 253.24073404 0.1241985 C253.24073404 8.3741985 253.24073404 16.6241985 253.24073404 25.1241985 C168.76073404 25.1241985 84.28073404 25.1241985 -2.75926596 25.1241985 C-2.75926596 0.19479527 -2.75926596 0.19479527 0 0 Z " fill="#3DCBA5" transform="translate(156.75926595926285,72.8758015036583)"/>
<path d="M0 0 C9.57 0 19.14 0 29 0 C29.020625 4.434375 29.04125 8.86875 29.0625 13.4375 C29.071604 14.83798584 29.08070801 16.23847168 29.09008789 17.68139648 C29.09258545 18.77524658 29.09508301 19.86909668 29.09765625 20.99609375 C29.10289307 22.12200928 29.10812988 23.2479248 29.11352539 24.40795898 C29 27 29 27 28 28 C18.43 28 8.86 28 -1 28 C-1 59.35 -1 90.7 -1 123 C-9.58 123 -18.16 123 -27 123 C-27 99.57 -27 76.14 -27 52 C-48.45 52 -69.9 52 -92 52 C-92 43.09 -92 34.18 -92 25 C-84.14610802 24.86800182 -76.29222865 24.73653338 -68.43826294 24.60920715 C-64.77750587 24.54973709 -61.11676509 24.489528 -57.45605469 24.42724609 C-38.30035791 24.10203138 -19.15927889 23.9496471 0 24 C0 16.08 0 8.16 0 0 Z " fill="#3DC8A6" transform="translate(502,20)"/>
<path d="M0 0 C0.33 0 0.66 0 1 0 C1 8.91 1 17.82 1 27 C22.45 27 43.9 27 66 27 C66 50.43 66 73.86 66 98 C74.25 98 82.5 98 91 98 C91 98.33 91 98.66 91 99 C82.42 99 73.84 99 65 99 C65 75.57 65 52.14 65 28 C44.21 28 23.42 28 2 28 C2 36.58 2 45.16 2 54 C1 55 1 55 -0.77850205 55.1241985 C-1.56186509 55.12381878 -2.34522813 55.12343906 -3.15232944 55.12304783 C-4.05303655 55.12503888 -4.95374366 55.12702993 -5.88174492 55.12908131 C-6.88269674 55.12616847 -7.88364856 55.12325563 -8.91493225 55.12025452 C-9.96934318 55.12110894 -11.02375412 55.12196337 -12.1101169 55.12284368 C-15.67246782 55.12450163 -19.2347725 55.11897199 -22.79711914 55.11352539 C-25.33910623 55.11324356 -27.8810934 55.11340117 -30.42308044 55.1139679 C-35.91081909 55.11419622 -41.39854262 55.11134471 -46.88627815 55.10573006 C-54.82070802 55.09761738 -62.75513214 55.09500008 -70.68956571 55.09374207 C-83.56135761 55.09155118 -96.43314318 55.0848901 -109.30493164 55.07543945 C-121.81176726 55.06626628 -134.31860116 55.05919645 -146.82543945 55.05493164 C-147.60368724 55.05466364 -148.38193502 55.05439565 -149.18376607 55.05411953 C-155.26979745 55.05204021 -161.35582888 55.05008325 -167.44186032 55.04816496 C-197.29457935 55.03872417 -227.14728256 55.01860755 -257 55 C-257 139.48 -257 223.96 -257 311 C-248.09 311 -239.18 311 -230 311 C-230 311.33 -230 311.66 -230 312 C-238.58 312 -247.16 312 -256 312 C-256 344.34 -256 376.68 -256 410 C-225.97 410 -195.94 410 -165 410 C-165 410.33 -165 410.66 -165 411 C-195.36 411 -225.72 411 -257 411 C-257 419.25 -257 427.5 -257 436 C-266.57 436 -276.14 436 -286 436 C-286 426.43 -286 416.86 -286 407 C-276.43 407 -266.86 407 -257 407 C-257 375.98 -257 344.96 -257 313 C-266.24 313 -275.48 313 -285 313 C-285 312.67 -285 312.34 -285 312 C-276.09 312 -267.18 312 -258 312 C-258 226.86 -258 141.72 -258 54 C-266.91 54 -275.82 54 -285 54 C-285 53.67 -285 53.34 -285 53 C-275.76 53 -266.52 53 -257 53 C-257 45.74 -257 38.48 -257 31 C-266.24 31 -275.48 31 -285 31 C-285 21.43 -285 11.86 -285 2 C-280.400625 1.979375 -275.80125 1.95875 -271.0625 1.9375 C-269.60980713 1.928396 -268.15711426 1.91929199 -266.66040039 1.90991211 C-265.52594482 1.90741455 -264.39148926 1.90491699 -263.22265625 1.90234375 C-261.47094116 1.89448853 -261.47094116 1.89448853 -259.68383789 1.88647461 C-257 2 -257 2 -256 3 C-256 10.92 -256 18.84 -256 27 C-171.52 27 -87.04 27 0 27 C0 18.09 0 9.18 0 0 Z M-255 29 C-255 36.92 -255 44.84 -255 53 C-170.52 53 -86.04 53 1 53 C1 44.75 1 36.5 1 28 C-31.46847019 27.97741543 -63.93693737 27.95950219 -96.40541359 27.94893467 C-100.23454983 27.94768389 -104.06368605 27.94638958 -107.89282227 27.94506836 C-109.03633895 27.94467489 -109.03633895 27.94467489 -110.20295698 27.94427348 C-122.5630492 27.93991663 -134.92313678 27.932029 -147.28322624 27.9228472 C-159.95631985 27.91351108 -172.62941103 27.90794448 -185.30250794 27.90591151 C-193.12881798 27.90453619 -200.95511494 27.90018515 -208.78142095 27.89208353 C-214.77245809 27.88619591 -220.76348386 27.88554093 -226.75452423 27.88689232 C-229.21970513 27.88661579 -231.6848865 27.88460803 -234.15006447 27.88079453 C-237.49971481 27.87586425 -240.84930786 27.87699924 -244.19895935 27.87974548 C-245.18823832 27.87683264 -246.1775173 27.8739198 -247.19677442 27.87091869 C-248.5321598 27.87390526 -248.5321598 27.87390526 -249.89452267 27.87695217 C-251.0558973 27.87638259 -251.0558973 27.87638259 -252.24073404 27.8758015 C-254.02726959 27.80875101 -254.02726959 27.80875101 -255 29 Z " fill="#185143" transform="translate(409,45)"/>
<path d="M0 0 C0.33 0 0.66 0 1 0 C1 8.91 1 17.82 1 27 C22.45 27 43.9 27 66 27 C66 50.43 66 73.86 66 98 C74.25 98 82.5 98 91 98 C91 98.33 91 98.66 91 99 C82.42 99 73.84 99 65 99 C65 75.57 65 52.14 65 28 C44.21 28 23.42 28 2 28 C2 36.58 2 45.16 2 54 C-83.14 54 -168.28 54 -256 54 C-256 46.08 -256 38.16 -256 30 C-265.57 30 -275.14 30 -285 30 C-285 20.76 -285 11.52 -285 2 C-280.400625 1.979375 -275.80125 1.95875 -271.0625 1.9375 C-269.60980713 1.928396 -268.15711426 1.91929199 -266.66040039 1.90991211 C-265.52594482 1.90741455 -264.39148926 1.90491699 -263.22265625 1.90234375 C-261.47094116 1.89448853 -261.47094116 1.89448853 -259.68383789 1.88647461 C-257 2 -257 2 -256 3 C-256 10.92 -256 18.84 -256 27 C-171.52 27 -87.04 27 0 27 C0 18.09 0 9.18 0 0 Z M-255 29 C-255 36.92 -255 44.84 -255 53 C-170.52 53 -86.04 53 1 53 C1 44.75 1 36.5 1 28 C-31.46847019 27.97741543 -63.93693737 27.95950219 -96.40541359 27.94893467 C-100.23454983 27.94768389 -104.06368605 27.94638958 -107.89282227 27.94506836 C-109.03633895 27.94467489 -109.03633895 27.94467489 -110.20295698 27.94427348 C-122.5630492 27.93991663 -134.92313678 27.932029 -147.28322624 27.9228472 C-159.95631985 27.91351108 -172.62941103 27.90794448 -185.30250794 27.90591151 C-193.12881798 27.90453619 -200.95511494 27.90018515 -208.78142095 27.89208353 C-214.77245809 27.88619591 -220.76348386 27.88554093 -226.75452423 27.88689232 C-229.21970513 27.88661579 -231.6848865 27.88460803 -234.15006447 27.88079453 C-237.49971481 27.87586425 -240.84930786 27.87699924 -244.19895935 27.87974548 C-245.18823832 27.87683264 -246.1775173 27.8739198 -247.19677442 27.87091869 C-248.5321598 27.87390526 -248.5321598 27.87390526 -249.89452267 27.87695217 C-251.0558973 27.87638259 -251.0558973 27.87638259 -252.24073404 27.8758015 C-254.02726959 27.80875101 -254.02726959 27.80875101 -255 29 Z " fill="#247864" transform="translate(409,45)"/>
<path d="M0 0 C0.33 0 0.66 0 1 0 C1 23.1 1 46.2 1 70 C21.79 70 42.58 70 64 70 C64 61.42 64 52.84 64 44 C149.14 44 234.28 44 322 44 C322 51.92 322 59.84 322 68 C331.57 68 341.14 68 351 68 C351.0309375 74.6515625 351.0309375 74.6515625 351.0625 81.4375 C351.071604 82.83798584 351.08070801 84.23847168 351.09008789 85.68139648 C351.09383423 87.32217163 351.09383423 87.32217163 351.09765625 88.99609375 C351.10551147 90.68496704 351.10551147 90.68496704 351.11352539 92.40795898 C351 95 351 95 350 96 C347.92737924 96.08767112 345.85179706 96.10695873 343.77734375 96.09765625 C341.88725586 96.09282227 341.88725586 96.09282227 339.95898438 96.08789062 C338.61848891 96.07953403 337.27799412 96.07106907 335.9375 96.0625 C334.59310058 96.0574866 333.2486994 96.05292342 331.90429688 96.04882812 C328.60284567 96.03699497 325.3014174 96.01905886 322 96 C322 87.75 322 79.5 322 71 C237.52 71 153.04 71 66 71 C66 79.91 66 88.82 66 98 C65.67 98 65.34 98 65 98 C65 89.09 65 80.18 65 71 C43.55 71 22.1 71 0 71 C0 47.57 0 24.14 0 0 Z M65 45 C65 53.25 65 61.5 65 70 C149.48 70 233.96 70 321 70 C321 61.75 321 53.5 321 45 C236.52 45 152.04 45 65 45 Z " fill="#27806A" transform="translate(179,357)"/>
<path d="M0 0 C9.24 0 18.48 0 28 0 C28 8.91 28 17.82 28 27 C18.76 27 9.52 27 0 27 C0 18.09 0 9.18 0 0 Z " fill="#3CC7A2" transform="translate(123,453)"/>
<path d="M0 0 C8.91 0 17.82 0 27 0 C27 8.58 27 17.16 27 26 C18.09 26 9.18 26 0 26 C0 17.42 0 8.84 0 0 Z " fill="#3DCAA4" transform="translate(502,426)"/>
<path d="M0 0 C8.91 0 17.82 0 27 0 C27 8.58 27 17.16 27 26 C18.09 26 9.18 26 0 26 C0 17.42 0 8.84 0 0 Z " fill="#3DCAA5" transform="translate(125,48)"/>
<path d="M0 0 C0.33 0 0.66 0 1 0 C1.33 8.58 1.66 17.16 2 26 C10.58 26 19.16 26 28 26 C28 17.42 28 8.84 28 0 C28.33 0 28.66 0 29 0 C29.02886338 4.47915328 29.04675187 8.95828291 29.0625 13.4375 C29.07087891 14.71689453 29.07925781 15.99628906 29.08789062 17.31445312 C29.09111328 18.52939453 29.09433594 19.74433594 29.09765625 20.99609375 C29.10289307 22.12200928 29.10812988 23.2479248 29.11352539 24.40795898 C29 27 29 27 28 28 C18.43 28 8.86 28 -1 28 C-1 59.35 -1 90.7 -1 123 C-1.33 123 -1.66 123 -2 123 C-2 90.66 -2 58.32 -2 25 C-10.58 25 -19.16 25 -28 25 C-28 24.67 -28 24.34 -28 24 C-18.76 24 -9.52 24 0 24 C0 16.08 0 8.16 0 0 Z " fill="#298672" transform="translate(502,20)"/>
</svg>
